<?xml version="1.0" encoding="UTF-8"?>
<svg version="1.1" xmlns="http://www.w3.org/2000/svg" width="512" height="512">
<path d="M0 0 C1.91619141 0.41572266 1.91619141 0.41572266 3.87109375 0.83984375 C28.946528 6.9195276 50.12982295 20.82931094 69 38 C72.77039212 36.38284129 75.53052081 33.97832442 78.625 31.3125 C98.21439807 14.75536018 119.99923718 4.39851039 145 -1 C146.08539063 -1.2371875 147.17078125 -1.474375 148.2890625 -1.71875 C188.29108787 -9.05065762 232.2883836 -2.58943561 266.06835938 20.60693359 C271.71564179 24.67965774 276.89165036 29.27999496 282 34 C282.89332031 34.81082031 283.78664063 35.62164062 284.70703125 36.45703125 C308.1123715 58.68288978 324.4858968 93.78227346 326.10629272 126.12133789 C326.16417777 128.50580232 326.1909011 130.88829983 326.203125 133.2734375 C326.20882507 134.1554483 326.21452515 135.03745911 326.22039795 135.94619751 C326.22980862 137.81031105 326.23636621 139.67444094 326.24023438 141.53857422 C326.24985202 144.33201902 326.28087621 147.12469891 326.3125 149.91796875 C326.37982621 161.28423585 325.46352411 171.90277142 323 183 C322.80647949 183.88558594 322.61295898 184.77117187 322.41357422 185.68359375 C321.92962779 187.74503252 321.39531019 189.77702516 320.8125 191.8125 C320.60238281 192.54782959 320.39226562 193.28315918 320.17578125 194.04077148 C312.72962133 219.15305157 300.27272267 242.79709874 285 264 C284.5064502 264.68884277 284.01290039 265.37768555 283.50439453 266.08740234 C276.85980287 275.30074601 269.75505596 284.04365078 262.25439453 292.57080078 C261.22224574 293.74678346 260.20134207 294.93262635 259.18359375 296.12109375 C247.09114278 310.21379977 234.16248841 324.29192471 219.9765625 336.3046875 C217.49139806 338.4362317 215.09559854 340.65683599 212.6875 342.875 C208.19986568 346.96757435 203.59069772 350.85270834 198.86328125 354.6640625 C196.34601018 356.71771612 193.87455552 358.81555735 191.41357422 360.93603516 C184.16612295 367.1667656 176.59393125 372.88474307 168.91503906 378.56982422 C166.03918773 380.71754695 163.2084833 382.92190374 160.375 385.125 C153.71478441 390.27374201 146.88693764 395.16243006 140 400 C139.17741699 400.58023926 138.35483398 401.16047852 137.50732422 401.75830078 C125.10479055 410.49864249 112.5801786 419.00839615 99.8203125 427.21875 C95.71036282 429.86816219 91.65424114 432.58458617 87.6171875 435.34375 C86.57240234 436.04943115 85.52761719 436.7551123 84.45117188 437.48217773 C82.44003035 438.84225209 80.43822319 440.2162596 78.44726562 441.60571289 C77.54427734 442.2114917 76.64128906 442.81727051 75.7109375 443.44140625 C74.91993652 443.98482666 74.12893555 444.52824707 73.31396484 445.08813477 C71 446 71 446 68.43701172 445.30151367 C66.32767208 444.17499698 64.29629143 443.04411592 62.296875 441.734375 C61.58055908 441.26765381 60.86424316 440.80093262 60.1262207 440.32006836 C59.34206787 439.8019458 58.55791504 439.28382324 57.75 438.75 C56.90590576 438.19642822 56.06181152 437.64285645 55.19213867 437.07250977 C52.70460611 435.43701207 50.2207306 433.79613038 47.73895264 432.1519165 C45.86322489 430.90939747 43.98654708 429.6683206 42.10986328 428.42724609 C11.08230487 407.89658455 11.08230487 407.89658455 -2.07226562 398.390625 C-4.2140196 396.84561099 -6.36458142 395.31330129 -8.515625 393.78125 C-17.29212452 387.51153529 -25.88841789 381.07084988 -34.31445312 374.33837891 C-36.02839 372.97745742 -37.75413369 371.63308597 -39.484375 370.29296875 C-47.36554577 364.18019175 -55.00328024 357.83296016 -62.52539062 351.28369141 C-63.75853674 350.21020096 -64.99594387 349.14160782 -66.234375 348.07421875 C-71.20920505 343.76749604 -76.04246066 339.30859613 -80.875 334.84375 C-83.15905817 332.74455466 -85.49016918 330.708956 -87.83984375 328.68359375 C-92.26579149 324.82364551 -96.42245639 320.72502348 -100.5625 316.5625 C-101.63661133 315.49418945 -101.63661133 315.49418945 -102.73242188 314.40429688 C-106.80516665 310.32414037 -110.70206596 306.14641529 -114.46557617 301.77954102 C-116.3936382 299.5434799 -118.38293433 297.36656035 -120.375 295.1875 C-157.73575947 253.61973064 -186.45142297 202.7019284 -186.4375 145.75 C-186.4385675 144.82269073 -186.43963501 143.89538147 -186.44073486 142.93997192 C-186.41557564 127.77761695 -185.3080325 113.62740538 -181 99 C-180.77006348 98.20464844 -180.54012695 97.40929687 -180.30322266 96.58984375 C-169.52141594 60.51314017 -144.8619741 30.17216637 -111.97045898 12.07055664 C-78.43789576 -5.75488251 -36.70826484 -8.07022771 0 0 Z M9.625 119.625 C2.36005916 130.74944066 1.23364842 142.78123251 3.6953125 155.62890625 C7.09047119 167.71167687 13.81180546 179.59168641 24.9296875 185.99609375 C31.12413536 188.99981658 36.29418906 189.40605713 43 188 C50.60322189 185.01834436 55.45191489 179.1957656 59 172 C63.56922971 158.75401003 61.4530914 145.07888303 55.90234375 132.515625 C51.24055976 123.35008359 44.55558968 116.02340618 35 112 C25.31549895 109.14288666 16.09433524 111.6853613 9.625 119.625 Z M97 123 C88.12158672 133.89364199 84.58191881 147.11595306 85.1171875 161.05078125 C86.35208661 169.7580801 89.93024018 179.03279847 96.9375 184.625 C102.70180254 188.32594425 107.99970404 189.55080649 114.74609375 188.5234375 C124.87600772 186.17090982 131.97770764 178.57688539 137.375 170 C143.61805806 158.86279947 145.8738807 146.0944319 143.28125 133.51171875 C140.55525799 123.98173862 137.47830825 118.00476477 128.8671875 112.9453125 C116.53494375 106.70179161 105.33740168 114.0660551 97 123 Z M-47.375 183.5 C-52.60098608 191.53997859 -52.21523566 202.02569775 -50.34765625 211.20703125 C-46.39450531 223.06648408 -37.85704924 233.72334343 -26.6875 239.5 C-20.42929501 241.92464487 -13.64159755 242.53358945 -7.375 239.89453125 C-1.74935764 236.44327368 1.5835946 232.52864313 3.57421875 226.1640625 C5.8271446 214.71341185 3.30644412 203.74625302 -3 194.0625 C-3.98836993 192.69982166 -4.9868575 191.34436217 -6 190 C-6.86625 188.700625 -6.86625 188.700625 -7.75 187.375 C-14.34110675 180.41772065 -21.79423793 176.08819339 -31.375 175.5625 C-38.43837309 175.69704044 -42.61402764 178.48845014 -47.375 183.5 Z M150.60546875 192.48828125 C143.97965046 202.85422081 141.87348837 212.89076734 143 225 C144.54005993 231.4858524 147.5773642 235.27193789 153 239 C157.79994373 241.84776536 162.56875132 241.58376687 168 241 C179.18038519 237.96402548 187.28928294 229.73046854 193 220 C197.85385497 210.55785052 199.7097379 201.10868341 197.46875 190.48046875 C195.45799092 184.76510462 192.6076648 180.70917967 187.375 177.6875 C173.06478237 171.18285562 158.96580926 181.21999622 150.60546875 192.48828125 Z M14 241 C-1.68118098 260.84032865 -10.73992042 284.52647759 -9 310 C-8.1577121 315.79730968 -7.2003668 320.4610682 -3.5625 325.125 C1.72284124 328.99232286 5.54570005 329.66400265 12 329 C16.00449466 328.14987189 19.89570014 326.9973274 23.8125 325.8125 C26.02410525 325.16839087 28.23635567 324.52649319 30.44921875 323.88671875 C31.54669434 323.56751465 32.64416992 323.24831055 33.77490234 322.91943359 C38.53567021 321.5622003 43.32241542 320.3246218 48.125 319.125 C48.92268799 318.92237549 49.72037598 318.71975098 50.54223633 318.51098633 C77.2191398 311.88678899 101.59303734 319.5750366 127.17944336 327.21557617 C133.61494868 329.00535187 140.46815791 330.49122222 146.8125 327.8125 C153.70405543 322.10235407 154.90795741 316.0797124 155.75 307.5625 C157.27227468 280.9226931 146.39882241 256.68413183 129 237 C116.30917915 222.83263299 97.14145764 207.53050205 77.45703125 205.6640625 C51.80925704 205.38916674 30.16095599 222.28137144 14 241 Z " fill="#000000" transform="translate(186,35)"/>
</svg>
